<?xml version="1.0" encoding="UTF-8" standalone="no"?>
<svg preserveAspectRatio="xMidYMid slice" xmlns:xlink="http://www.w3.org/1999/xlink" xmlns="http://www.w3.org/2000/svg" viewBox="0 0 1000 700" width="68px" height="47px">
  <rect x="0" y="0" width="100%" height="100%" fill="#4fff0f"></rect>
  <defs>
    <mask id="circle-mask" fill="white">
      <circle cx="260" cy="270" r="180"></circle>
      <circle cx="450" cy="200" r="120"></circle>
      <circle cx="690" cy="290" r="200"></circle>
      <circle cx="580" cy="380" r="240"></circle>
      <circle cx="300" cy="430" r="150"></circle>
      <circle cx="90" cy="430" r="25"></circle>
      <circle cx="870" cy="160" r="25"></circle>
      <circle cx="870" cy="550" r="40"></circle>
    </mask>
    <mask id="circle-mask" fill="white">
      <path d="M30,30 L970,30 L970,670" stroke="black" fill="none" id="text1"></path>
      <path d="M970,670 L30,670 L30,30" stroke="black" fill="none" id="text2"></path>
    </mask>
    <pattern id="vertical-stripes" viewBox="0,0,10,10" width="10%" height="10%">
      <line x1="0" y1="0" x2="0" y2="20" stroke="#2439d6" stroke-width="1"></line>
    </pattern>
    <pattern id="horizontal-stripes" viewBox="0,0,10,10" width="10%" height="10%" patternTransform="rotate(90)">
      <line x1="0" y1="0" x2="0" y2="20" stroke="#2439d6" stroke-width="2"></line>
    </pattern>
    <pattern id="diagonal-stripes-up" viewBox="0,0,10,10" width="10%" height="10%" patternTransform="rotate(45)">
      <line x1="0" y1="0" x2="0" y2="20" stroke="#2439d6" stroke-width="2"></line>
    </pattern>
    <pattern id="diagonal-stripes-down" viewBox="0,0,10,10" width="10%" height="10%" patternTransform="rotate(135)">
      <line x1="0" y1="0" x2="0" y2="20" stroke="#2439d6" stroke-width="2"></line>
    </pattern>
    <pattern id="dots" viewBox="0 0 10 10" width="10%" height="10%">
      <circle cx="5" cy="5" r="1" fill="#2439d6"></circle>
    </pattern>
    <pattern id="checkerboard" viewBox="0 0 10 10" width="10%" height="10%">
      <rect x="0" y="0" width="5" height="5" fill="#2439d6"></rect>
      <rect x="5" y="5" width="5" height="5" fill="#2439d6"></rect>
    </pattern>
    <pattern id="triangles" viewBox="0 0 10 10" width="10%" height="10%">
      <polygon points="0,0 10,0 5,10" fill="#2439d6"></polygon>
    </pattern>
    <pattern id="wavy" viewBox="0 0 10 10" width="10%" height="10%">
      <path d="M 0 5 Q 2.5 0, 5 5 T 10 5" stroke="#2439d6" stroke-width="1" fill="none"></path>
    </pattern>
    <pattern id="crosshatch" viewBox="0 0 10 10" width="10%" height="10%">
      <line x1="0" y1="0" x2="10" y2="10" stroke="#2439d6" stroke-width="1"></line>
      <line x1="0" y1="10" x2="10" y2="0" stroke="#2439d6" stroke-width="1"></line>
    </pattern>
    <pattern id="diamonds" viewBox="0 0 10 10" width="10%" height="10%">
      <polygon points="5,0 10,5 5,10 0,5" fill="#2439d6"></polygon>
    </pattern>
    <pattern id="hexagons" viewBox="0 0 10 10" width="10%" height="10%">
      <polygon points="5,0 10,3.5 10,6.5 5,10 0,6.5 0,3.5" fill="#2439d6"></polygon>
    </pattern>
    <pattern id="stars" viewBox="0 0 10 10" width="10%" height="10%">
      <polygon points="5,0 6.5,3.5 10,3.5 7.5,6 8.5,9.5 5,7 1.5,9.5 2.5,6 0,3.5 3.5,3.5" fill="#2439d6"></polygon>
    </pattern>
  </defs>
  <g mask="url(#circle-mask)">
    <rect x="0" y="0" width="100%" height="100%" fill="url(#hexagons)" mask="url(#circle-mask)"></rect>
    <rect x="141" y="495" width="145" height="145" fill="url(#wavy)"></rect>
    <rect x="757" y="539" width="94" height="94" fill="url(#wavy)"></rect>
    <rect x="46" y="203" width="178" height="178" fill="url(#wavy)"></rect>
    <rect x="740" y="28" width="160" height="160" fill="url(#wavy)"></rect>
    <rect x="614" y="292" width="82" height="82" fill="url(#wavy)"></rect>
    <rect x="21" y="429" width="169" height="169" fill="url(#horizontal-stripes)"></rect>
    <rect x="368" y="307" width="125" height="125" fill="url(#horizontal-stripes)"></rect>
    <rect x="669" y="424" width="136" height="136" fill="url(#horizontal-stripes)"></rect>
    <rect x="470" y="342" width="97" height="97" fill="url(#horizontal-stripes)"></rect>
    <rect x="840" y="473" width="113" height="113" fill="url(#horizontal-stripes)"></rect>
    <rect x="657" y="449" width="198" height="198" fill="url(#diagonal-stripes-up)"></rect>
    <rect x="667" y="305" width="104" height="104" fill="url(#diagonal-stripes-up)"></rect>
    <rect x="749" y="420" width="161" height="161" fill="url(#diagonal-stripes-up)"></rect>
    <rect x="43" y="526" width="170" height="170" fill="url(#diagonal-stripes-up)"></rect>
    <rect x="586" y="389" width="130" height="130" fill="url(#diagonal-stripes-up)"></rect>
    <rect x="644" y="464" width="160" height="160" fill="url(#checkerboard)"></rect>
    <rect x="63" y="10" width="142" height="142" fill="url(#checkerboard)"></rect>
    <rect x="244" y="109" width="136" height="136" fill="url(#checkerboard)"></rect>
    <rect x="377" y="496" width="99" height="99" fill="url(#checkerboard)"></rect>
    <rect x="642" y="441" width="118" height="118" fill="url(#checkerboard)"></rect>
    <rect x="758" y="467" width="125" height="125" fill="url(#vertical-stripes)"></rect>
    <rect x="713" y="327" width="192" height="192" fill="url(#vertical-stripes)"></rect>
    <rect x="841" y="27" width="135" height="135" fill="url(#vertical-stripes)"></rect>
    <rect x="200" y="555" width="108" height="108" fill="url(#vertical-stripes)"></rect>
    <rect x="49" y="467" width="177" height="177" fill="url(#vertical-stripes)"></rect>
  </g>
  <text style="font-family: monospace; text-transform: uppercase; font-size: 1.8rem; fill: rgb(36, 57, 214);">
    <textPath href="#text1">JURY TIME</textPath>
    <textPath href="#text2">JURY TIME</textPath>
  </text>
</svg>
